<svg width="171" height="171" viewBox="0 0 171 171" fill="none" xmlns="http://www.w3.org/2000/svg">
<mask id="mask0_50_6328" style="mask-type:luminance" maskUnits="userSpaceOnUse" x="0" y="0" width="171" height="171">
<g clip-path="url(#clip0_50_6328)">
<path d="M158.64 112.47C122.721 135.627 63.346 110.39 71.3592 74.176C78.3845 42.427 116.099 51.5518 124.678 55.8363C133.256 60.1208 128.065 37.3635 108.172 30.533C81.225 21.28 48.241 23.2418 37.8147 69.7205C30.6897 101.484 44.6452 146.015 98.23 146.609C151.815 147.202 158.64 112.47 158.64 112.47Z" fill="white"/>
<path d="M170.943 119.667C170.943 109.473 157.862 108.58 151.943 114.351C137.722 128.217 116.784 133.409 88.7775 127.941C40.09 118.441 39.6578 61.3748 72.9458 45.0965C90.953 36.29 112.319 46.7163 120.441 52.9578C127.509 58.387 141.028 65.5928 140.32 56.5298C138.809 37.2353 100.995 -4.085 50.3263 22.04C-0.337237 48.165 1.24393e-05 107.127 1.24393e-05 117.814V152.252C1.24393e-05 162.745 8.61651 171 19.1093 171H152.109C162.602 171 171 162.745 171 152.252C171 152.252 170.981 119.695 170.943 119.667Z" fill="white"/>
</g>
</mask>
<g mask="url(#mask0_50_6328)">
<circle cx="85.3333" cy="85.3333" r="85.3333" fill="#3C5BA9"/>
</g>
<defs>
<clipPath id="clip0_50_6328">
<rect width="171" height="171" fill="white"/>
</clipPath>
</defs>
</svg>
